<?xml version="1.0" encoding="utf-8"?>
<!-- Generator: Adobe Illustrator 16.0.0, SVG Export Plug-In . SVG Version: 6.00 Build 0)  -->
<!DOCTYPE svg PUBLIC "-//W3C//DTD SVG 1.1//EN" "http://www.w3.org/Graphics/SVG/1.1/DTD/svg11.dtd">
<svg version="1.1" id="Capa_1" xmlns="http://www.w3.org/2000/svg" xmlns:xlink="http://www.w3.org/1999/xlink" x="0px" y="0px"
	 width="200px" height="100px" viewBox="0 0 200 100" enable-background="new 0 0 200 100" xml:space="preserve">
<g>
	<path fill="#1E4999" d="M80.746,26.566l-2.753,5.386l3.832-2.564l3.839,5.546l-0.781-6.635l3.663-1.709l-3.855-1.347l0.711-5.684
		l-3.447,4.582l-3.141-1.518L80.746,26.566z M102.637,34.995l-0.238-1.202l1.854,2.557l-0.152,0.371l-1.971,0.174
		c-0.369-1.323,0.715-2.149,0.715-2.149 M106.594,82.2c1.996,0,3.416,1.893,3.412,3.773c-0.014,1.883-1.395,3.983-3.412,3.992
		c-1.932,0.015-3.404-2.109-3.404-3.992C103.188,84.093,104.611,82.2,106.594,82.2z M106.594,92.201c3.389,0,5.762-2.809,5.762-6.14
		c0-3.251-2.373-6.098-5.762-6.098c-3.393,0-5.75,2.847-5.75,6.098C100.843,89.393,103.203,92.201,106.594,92.201z M134.057,82.325
		v-1.967h-6.012v11.624h6.012v-1.972h-3.695v-3.149h3.555v-1.967h-3.555v-2.568L134.057,82.325L134.057,82.325z M88.991,91.98h2.544
		v-6.719l0.223,0.396l4.728,6.553h1.733V80.358h-2.423v6.666l-0.416-0.763l-4.465-6.214h-1.921V91.98H88.991z M115.002,91.98h2.541
		l-0.004-6.719l0.225,0.396l4.73,6.553h1.74V80.358h-2.428v6.666l-0.416-0.763l-4.473-6.214h-1.914V91.98H115.002z M82.771,87.681
		h-2.763l1.273-4.226h0.038L82.771,87.681z M83.399,89.527l0.892,2.455h2.422l-4.41-11.934h-1.76l-4.527,11.934h2.388l0.958-2.455
		H83.399z M68.216,82.325h0.375c2.559,0,3.859,1.314,3.859,3.843c0,2.297-1.083,3.843-3.859,3.843h-0.375V82.325z M65.944,91.98
		h3.223c3.319,0,5.629-2.531,5.629-5.794c0-3.312-2.256-5.828-5.616-5.828h-3.237V91.98z M122.691,59.963
		c-0.34-0.685-3.598-5.308-3.598-5.308c-0.859-1.556,0.059-3.023,0.865-4.31c0.531,0.493-0.094,1.042,0.199,1.686
		c4.615-4.864,9.391-10.454,8.02-17.387c-0.566-1.102-1.535-2.28-2.686-2.789l-0.77-2.558c-3.016-6.178-10.186-6.8-16.072-7.394
		l3.227,2.101c-2.154,0.13-4.588-0.721-7,0.218l2.93,0.908c-3.172,0.652-6.262,1.458-8.217,4.28c0.602-0.024,1.31-0.288,1.856-0.073
		c-0.907,1.632-1.814,3.234-1.549,5.203c-0.074,2.437-2.812,3.235-4.439,4.451c-0.354,0.84,0.283,1.548,0.884,2.062
		c0.005,0.624-0.295,1.157-0.757,1.649c0.086,0.662,0.676,1.06,1.196,1.425c0,0-1.263,0.071-0.848,1.076
		c1.485,1.315-0.285,2.917,0.054,4.477c1.004,1.31,2.873,1.347,4.407,1.657c2.178,0.418,2.674,2.665,3.213,4.438
		c1.057,3.725-1.533,3.911-3.504,4.661c0,0-6.5,1.595-8.258,8.002l-0.689-0.114C78.555,64.402,69.402,52.646,69.402,38.75
		c0-17.098,13.868-30.96,30.963-30.96c17.108,0,30.967,13.862,30.967,30.96c0,8.213-3.203,15.685-8.418,21.221L122.691,59.963z"/>
</g>
</svg>
