<?xml version="1.0" encoding="utf-8"?>
<!-- Generator: Adobe Illustrator 16.0.0, SVG Export Plug-In . SVG Version: 6.00 Build 0)  -->
<!DOCTYPE svg PUBLIC "-//W3C//DTD SVG 1.1//EN" "http://www.w3.org/Graphics/SVG/1.1/DTD/svg11.dtd">
<svg version="1.1" id="Capa_1" xmlns="http://www.w3.org/2000/svg" xmlns:xlink="http://www.w3.org/1999/xlink" x="0px" y="0px"
	 width="200px" height="100px" viewBox="0 0 200 100" enable-background="new 0 0 200 100" xml:space="preserve">
<g>
	<path fill="#E42313" d="M149.049,76.557V44.275c0,0-1.309-19.173-21.176-21.175l-76.921,0.001v32.262
		c0,0,1.309,19.173,21.175,21.174L149.049,76.557z"/>
	<path fill="#AF182F" d="M151.601,43.519c0,0-1.33-20.44-23.931-22.767H48.4L48.399,56.48c0,0,1.329,20.44,23.931,22.768h79.271
		V43.519z M149.763,77.145H72.147C52.311,74.892,50.762,55.78,50.762,55.78V22.435h77.616c19.837,2.252,21.385,21.363,21.385,21.363
		V77.145z"/>
	<path fill="#B61833" d="M96.226,53.52c0.013-2.302-0.479-4.723-2.6-4.182c-0.997,0.254-1.985,1.438-2.763,2.923
		c0.635-0.915,1.351-1.585,2.069-1.768c2.121-0.541,2.612,1.879,2.6,4.182c-0.008,1.666-0.582,4.36-1.602,6.377
		C95.382,59.048,96.215,55.532,96.226,53.52z M100.069,41.878c0.042-1.615,0.326-3.417,0.566-5.199
		c0.293-2.184,1.016-4.547,0.238-5.886c-0.359,0.227-0.668,0.502-0.932,0.823c1.153,1.248,0.319,3.841,0,6.217
		c-0.24,1.782-0.524,3.585-0.565,5.2c1.372,0.073,1.933-0.567,2.225-1.545C101.252,41.769,100.765,41.915,100.069,41.878z
		 M98.359,41.901c-0.092,0.061-0.196,0.118-0.306,0.173c-1.316,0.873-3.543,1.009-4.539-0.084c-1.097-1.203-1.037-2.677-0.43-3.996
		c-0.219,0.292-0.415,0.601-0.579,0.92c-0.115,0.963-0.247,1.913-0.457,2.811c0.12,0.496,0.367,0.978,0.772,1.421
		C94.206,44.664,97.968,43.809,98.359,41.901z M98.585,38.963c0.25-0.311,0.405-0.625,0.479-0.929
		c-0.814,0.762-2.507,1.385-3.969,1.583c-0.033,0.414,0.034,0.74,0.169,0.994C96.632,40.294,98.013,39.675,98.585,38.963z
		 M97.093,37.518c0.48-0.255,0.804-0.619,0.716-1.065c-0.247-1.265-2.15-0.055-2.36,1.149
		C96.066,37.033,96.887,36.803,97.093,37.518z M90.239,35.386c0.147,0.078,0.297,0.169,0.449,0.274
		c0.117-1.449,1.039-3.728,0.175-4.888c-0.372,0.236-0.67,0.547-0.868,0.957C90.833,32.512,90.521,34.026,90.239,35.386z
		 M133.286,58.97c1.125-0.678,2.385-1.481,2.831-2.771c-0.589,0.664-1.394,1.168-2.138,1.616c-5.92,3.567-13.565,1.422-13.11-6.781
		c0.11-2.014,0.719-4.003,1.688-5.791c-1.369,2.063-2.245,4.487-2.381,6.945C119.722,60.392,127.368,62.537,133.286,58.97z
		 M136.565,47.894c0.311-0.373,0.619-0.85,0.88-1.395c-0.062,0.083-0.125,0.164-0.187,0.239c-2.179,2.617-7.227,3.997-10.739,4.747
		c0.021,0.343,0.06,0.669,0.112,0.977C130.073,51.679,134.548,50.315,136.565,47.894z M129.331,43.484
		c1.279-0.98,3.311-0.906,3.616,0.679c0.087,0.442,0.073,0.832-0.014,1.179c0.593-0.565,0.904-1.314,0.707-2.334
		c-0.306-1.584-2.338-1.659-3.617-0.679c-0.645,0.496-1.192,1.27-1.612,2.119C128.689,44.072,128.997,43.741,129.331,43.484z
		 M127.424,67.648c-0.708,0.052-1.143-0.861-2.034-1.355c-1.938-1.074-4.574-1.536-5.549-3.45c0.374,2.926,3.616,3.342,5.896,4.604
		c0.892,0.494,1.327,1.408,2.034,1.356c0.261-1.37,0.126-2.391-0.261-3.192C127.592,66.193,127.574,66.863,127.424,67.648z
		 M103.122,66.066c0.518-6.139,1.431-13.565,2.374-20.459c0.289-2.118,1.233-4.849,0.79-6.556c-0.199-0.769-1.407-1.243-1.469-2.034
		c-0.004-0.039-0.001-0.078,0.002-0.117c-0.312,0.356-0.49,0.71-0.464,1.041c0.063,0.791,1.27,1.266,1.47,2.034
		c0.443,1.708-0.503,4.438-0.792,6.556c-0.943,6.894-1.855,14.321-2.373,20.459c3.067,0.308,4.549-0.95,5.366-2.948
		C107.14,65.488,105.686,66.323,103.122,66.066z M95.096,66.745c-0.58-0.24-0.294-0.677-0.792-1.131
		c-1.739,0.819-2.322,1.922-4.634,1.922c-1.385,0-2.738-0.559-3.617-1.13c-4.367-2.845-3.211-11.103-0.587-15.974
		c-3.083,4.593-4.841,14.044-0.105,17.128c0.878,0.572,2.232,1.131,3.617,1.131c2.312,0,2.896-1.104,4.634-1.922
		c0.5,0.454,0.212,0.891,0.792,1.13c0.856,0.354,3.247-0.066,3.956-0.565c0.443-0.312,0.744-0.796,0.96-1.382
		c-0.083,0.082-0.171,0.16-0.267,0.228C98.342,66.679,95.953,67.098,95.096,66.745z M112.165,64.71
		c0.373-6.167,1.421-13.619,2.373-20.346c0.291-2.06,1.109-5.017,0.679-6.669c-0.188-0.724-1.434-1.257-1.469-2.035
		c-0.002-0.029,0.002-0.061,0.004-0.091c-0.449,0.419-0.717,0.847-0.697,1.246c0.035,0.777,1.28,1.312,1.469,2.035
		c0.431,1.652-0.388,4.608-0.679,6.669c-0.952,6.726-1.999,14.179-2.373,20.346c2.853,0.322,4.339-0.819,5.197-2.681
		C115.755,64.337,114.365,64.958,112.165,64.71z M143.047,58.564c-0.015,0.267-0.058,0.544-0.137,0.833
		c-1.582,5.769-11.614,6.689-14.826,11.013c-0.045,0.456-0.076,0.936-0.093,1.445c2.968-4.578,13.417-5.406,15.034-11.303
		C143.226,59.823,143.205,59.165,143.047,58.564z M71.02,68.214c-2.542,0.743-5.484,0.039-7.234-1.356
		c-2.275-1.813-3.709-5.526-4.634-8.703c-1.054-3.619-1.831-7.656-1.583-11.643c0.189-3.049,1.064-5.617,2.296-7.839
		c-1.59,2.477-2.766,5.401-2.989,8.994c-0.248,3.986,0.527,8.023,1.582,11.643c0.926,3.176,2.36,6.89,4.635,8.703
		c1.75,1.395,4.691,2.099,7.234,1.356c3.455-1.01,6.05-3.993,7.99-7.408C76.464,64.88,74.079,67.32,71.02,68.214z M89.291,41.474
		c1.117-1.109,1.689-4.709,0.267-4.795c-0.528-0.032-1.041,0.626-1.38,1.485c0.217-0.22,0.45-0.346,0.688-0.331
		C89.944,37.898,89.875,39.985,89.291,41.474z M87.734,44.841c0.545-0.101,0.637-0.453,1.243-0.678
		c0.057,0.821,1.465,0.362,1.922,0.226c0.132-0.339,0.243-0.69,0.342-1.052c-0.597,0.162-1.525,0.336-1.57-0.329
		c-0.607,0.225-0.698,0.577-1.244,0.679c-3.338,0.617-3.707-3.445-2.433-6.214C83.982,40.046,83.885,45.554,87.734,44.841z
		 M76.77,56.258c-0.123,0.939-0.375,1.963-0.799,2.873c0.862-1.113,1.312-2.659,1.491-4.028c0.698-5.336-0.696-10.344-2.373-14.242
		c-0.537-1.247-1.839-2.904-1.809-3.73c0-0.014,0.006-0.028,0.007-0.042c-0.399,0.427-0.688,0.847-0.7,1.197
		c-0.03,0.825,1.272,2.482,1.809,3.729C76.073,45.914,77.467,50.922,76.77,56.258z"/>
	<g>
		<g>
			<path fill="#FFFFFF" d="M142.062,40.785c-0.023-0.033-0.057-0.106-0.092-0.207c-0.037-0.102-0.078-0.232-0.125-0.388l0,0
				c-0.058-0.193-0.168-0.344-0.334-0.432c0.106-0.042,0.203-0.099,0.279-0.172c0.109-0.104,0.178-0.243,0.178-0.406
				c0-0.19-0.093-0.362-0.255-0.471l0,0c-0.197-0.136-0.471-0.191-0.88-0.191c-0.262,0-0.538,0.017-0.733,0.047l-0.049,0.008v2.304
				h0.492v-0.965h0.298c0.165,0.005,0.277,0.035,0.355,0.094c0.08,0.058,0.135,0.149,0.176,0.297l0.002,0.001
				c0.041,0.139,0.078,0.257,0.111,0.348c0.034,0.093,0.062,0.158,0.092,0.201l0.018,0.024h0.531L142.062,40.785z M140.543,38.872
				c0.067-0.009,0.175-0.018,0.316-0.017c0.193,0.001,0.354,0.033,0.458,0.094c0.104,0.062,0.156,0.141,0.158,0.265
				c-0.002,0.106-0.051,0.191-0.152,0.258c-0.102,0.065-0.257,0.107-0.45,0.107h-0.33V38.872z"/>
			<path fill="#FFFFFF" d="M140.915,37.447c-1.266,0-2.291,1.025-2.291,2.291s1.025,2.291,2.291,2.291
				c1.265,0,2.29-1.025,2.29-2.291S142.18,37.447,140.915,37.447z M140.973,41.49c-0.979,0-1.771-0.793-1.771-1.771
				c0-0.979,0.793-1.771,1.771-1.771c0.978,0,1.771,0.792,1.771,1.771C142.743,40.697,141.95,41.49,140.973,41.49z"/>
		</g>
		<path fill-rule="evenodd" clip-rule="evenodd" fill="#FFFFFF" d="M92.899,28.992c0.146,2.363-0.438,4.816-0.791,7.233
			c-0.352,2.399-0.435,4.937-1.243,7.009c-0.457,0.136-1.866,0.596-1.922-0.227c-0.607,0.225-0.698,0.577-1.244,0.679
			c-5.698,1.055-2.748-11.531,2.262-8.026c0.125-1.537,1.154-4.008,0-5.086C90.452,29.558,91.545,29.146,92.899,28.992z
			 M88.83,36.679c-1.344-0.083-2.585,4.297-1.131,5.086C89.299,42.264,90.588,36.785,88.83,36.679z"/>
		<path fill-rule="evenodd" clip-rule="evenodd" fill="#FFFFFF" d="M102.959,28.992c0.126,2.216-0.615,6.207-1.017,9.155
			c-0.282,2.062-0.351,3.852-2.601,3.73c0.042-1.615,0.326-3.417,0.566-5.199c0.319-2.376,1.152-4.969,0-6.218
			C100.588,29.635,101.555,29.094,102.959,28.992z"/>
		<path fill-rule="evenodd" clip-rule="evenodd" fill="#FFFFFF" d="M79.109,31.026c0.075,0,0.151,0,0.227,0
			c5.023,6.602,4.14,18.547,0.452,26.788c-2.034,4.545-5.054,9.103-9.495,10.399c-2.542,0.743-5.484,0.039-7.234-1.356
			c-2.275-1.813-3.709-5.526-4.634-8.703c-1.054-3.619-1.831-7.656-1.583-11.643c0.304-4.898,2.378-8.559,4.86-11.529
			c0.797-0.953,1.564-2.117,2.713-2.487c0.482,4.412,0.741,9.377,1.244,14.13c0.475,4.498,1.3,9.305,3.277,12.095
			c0.583,0.821,1.693,1.807,2.826,1.921c3.305,0.334,4.631-2.924,4.973-5.538c0.698-5.336-0.696-10.344-2.373-14.242
			c-0.537-1.247-1.839-2.904-1.809-3.73c0.036-0.963,2.146-2.458,2.939-3.164C76.973,32.646,77.782,31.903,79.109,31.026z"/>
		<path fill-rule="evenodd" clip-rule="evenodd" fill="#FFFFFF" d="M120.593,31.704c0.846,1.008,0.302,2.411,0.112,3.617
			c-0.954,6.092-1.741,12.768-2.6,19.216c-0.701,5.28-0.782,10.838-6.668,10.173c0.373-6.167,1.421-13.619,2.373-20.346
			c0.291-2.06,1.109-5.017,0.679-6.669c-0.188-0.724-1.434-1.257-1.469-2.035C112.935,33.862,118.63,31.523,120.593,31.704z"/>
		<path fill-rule="evenodd" clip-rule="evenodd" fill="#FFFFFF" d="M111.776,33.174c0.473,2.372-0.288,4.982-0.678,7.687
			c-0.713,4.941-1.299,10.164-2.036,15.372c-0.729,5.166-0.729,10.429-6.668,9.834c0.518-6.139,1.431-13.565,2.374-20.459
			c0.289-2.118,1.233-4.849,0.79-6.556c-0.199-0.769-1.407-1.243-1.469-2.034c-0.132-1.669,4.896-3.938,6.443-4.07
			C110.927,32.915,111.555,32.905,111.776,33.174z"/>
		<path fill-rule="evenodd" clip-rule="evenodd" fill="#FFFFFF" d="M94.369,39.617c-0.183,2.335,2.729,1.925,3.956,1.13
			c-0.393,1.907-4.153,2.762-5.538,1.243c-2.608-2.859,1.311-7.251,3.616-7.46c2.062-0.187,3.509,1.585,2.148,3.277
			C97.858,38.672,95.973,39.399,94.369,39.617z M97.082,36.452c-0.27-1.378-2.504,0.181-2.374,1.469
			C95.811,37.907,97.255,37.34,97.082,36.452z"/>
		<path fill-rule="evenodd" clip-rule="evenodd" fill="#FFFFFF" d="M125.792,51.485c0.168,2.801,1.458,4.447,3.956,4.634
			c2.394,0.18,4.58-1.29,6.442-1.469c-0.3,1.526-1.703,2.42-2.938,3.164c-5.92,3.567-13.565,1.422-13.11-6.781
			c0.336-6.104,5.227-12.002,10.964-12.659c3.594-0.413,6.526,1.09,6.895,3.504c0.295,1.929-0.592,3.806-1.469,4.86
			C134.353,49.355,129.305,50.735,125.792,51.485z M132.913,43.008c-0.306-1.584-2.338-1.659-3.617-0.679
			c-1.362,1.047-2.295,3.325-2.486,4.974C129.227,46.737,133.528,46.18,132.913,43.008z"/>
		<path fill-rule="evenodd" clip-rule="evenodd" fill="#FFFFFF" d="M102.056,45.721c-0.403,4.05-1.332,9.788-2.036,14.807
			c-0.311,2.213-0.355,4.712-1.695,5.652c-0.71,0.499-3.1,0.918-3.956,0.565c-0.58-0.24-0.294-0.677-0.792-1.131
			c-1.739,0.819-2.322,1.922-4.634,1.922c-1.385,0-2.738-0.559-3.617-1.13c-5.294-3.448-2.473-14.861,1.244-18.538
			c1.284-1.271,3.099-2.228,4.973-2.374c2.394-0.187,3.401,0.9,5.539,1.47C99.269,47.547,100.272,46.102,102.056,45.721z
			 M88.604,57.25c-0.215,2.688,0.34,5.321,2.261,5.313c2.864-0.013,4.619-6.117,4.634-9.043c0.013-2.302-0.479-4.723-2.6-4.182
			C90.849,49.86,88.839,54.303,88.604,57.25z"/>
		<path fill-rule="evenodd" clip-rule="evenodd" fill="#ABCD6B" d="M139.356,53.406c1.18,1.469,3.588,3.214,2.826,5.991
			c-1.617,5.896-12.066,6.725-15.034,11.303c0.108-3.404,0.832-5.527,2.374-7.347C132.51,59.832,138.913,59.202,139.356,53.406z"/>
		<path fill-rule="evenodd" clip-rule="evenodd" fill="#ABCD6B" d="M119.123,58.832c1.863,3.527,8.751,2.625,7.573,8.816
			c-0.708,0.052-1.143-0.861-2.034-1.355C121.79,64.7,117.381,64.459,119.123,58.832z"/>
	</g>
</g>
</svg>
