<?xml version="1.0" encoding="utf-8"?>
<!-- Generator: Adobe Illustrator 16.0.0, SVG Export Plug-In . SVG Version: 6.00 Build 0)  -->
<!DOCTYPE svg PUBLIC "-//W3C//DTD SVG 1.1//EN" "http://www.w3.org/Graphics/SVG/1.1/DTD/svg11.dtd">
<svg version="1.1" id="Capa_1" xmlns="http://www.w3.org/2000/svg" xmlns:xlink="http://www.w3.org/1999/xlink" x="0px" y="0px"
	 width="200px" height="100px" viewBox="0 0 200 100" enable-background="new 0 0 200 100" xml:space="preserve">
<g>
	<path fill-rule="evenodd" clip-rule="evenodd" fill="#1E1D5E" d="M88.364,84.318c1.794-0.098,3.589-0.172,5.381-0.301
		c2.647-0.19,5.296-0.381,7.937-0.645c2.695-0.268,5.388-0.582,8.07-0.953c4.806-0.665,9.57-1.555,14.283-2.715
		c5.886-1.45,11.641-3.285,17.135-5.877c4.248-2.003,8.249-4.393,11.728-7.582c2.417-2.217,4.462-4.724,5.817-7.739
		c2.139-4.754,2.003-9.493-0.156-14.198c-1.387-3.022-3.414-5.583-5.795-7.874c-3.867-3.722-8.367-6.508-13.176-8.83
		c-1.018-0.491-2.051-0.951-3.064-1.475c0.15,0.031,0.303,0.055,0.451,0.093c5.518,1.434,10.845,3.35,15.792,6.227
		c2.532,1.473,4.897,3.177,6.989,5.235c2.941,2.894,5.172,6.223,6.145,10.292c0.976,4.082,0.452,8.015-1.241,11.816
		c-1.486,3.336-3.691,6.154-6.317,8.658c-3.22,3.069-6.893,5.49-10.837,7.515c-6.127,3.145-12.627,5.2-19.342,6.63
		c-3.883,0.826-7.802,1.436-11.753,1.797c-2.726,0.25-5.461,0.414-8.194,0.547c-2.029,0.1-4.067,0.173-6.097,0.111
		c-4.049-0.123-8.094-0.346-12.14-0.531c-0.543-0.025-1.085-0.083-1.628-0.126C88.355,84.369,88.359,84.344,88.364,84.318z"/>
	<path fill-rule="evenodd" clip-rule="evenodd" fill="#34B200" d="M38.431,43.412c0.667-1.077,1.3-2.176,2.005-3.228
		c3.698-5.517,8.522-9.855,14.109-13.38c5.642-3.56,11.734-6.099,18.121-7.971c4.034-1.182,8.131-2.089,12.287-2.698
		c2.472-0.361,4.958-0.648,7.447-0.851c2.479-0.202,4.968-0.34,7.453-0.354c3.081-0.019,6.167,0.041,9.243,0.208
		c3.877,0.21,7.729,0.698,11.553,1.384c7.721,1.385,15.195,3.549,22.24,7.06c2.479,1.235,4.854,2.65,7.106,4.266
		c0.151,0.109,0.297,0.226,0.511,0.39c-1.418-0.624-2.742-1.244-4.094-1.794c-4.348-1.77-8.848-3.05-13.427-4.062
		c-3.372-0.745-6.767-1.37-10.197-1.757c-3.046-0.343-6.1-0.633-9.155-0.887c-1.596-0.133-3.203-0.156-4.807-0.194
		c-1.672-0.04-3.349-0.101-5.02-0.042c-3.065,0.107-6.134,0.229-9.191,0.468c-2.695,0.211-5.387,0.531-8.065,0.909
		c-5.931,0.836-11.748,2.186-17.445,4.047c-5.935,1.939-11.615,4.44-16.965,7.669c-4.905,2.961-9.376,6.471-13.338,10.618
		c-0.085,0.089-0.166,0.184-0.249,0.275C38.513,43.462,38.472,43.437,38.431,43.412z"/>
	<path fill-rule="evenodd" clip-rule="evenodd" fill="#E40000" d="M36.537,41.36c0,0.628,0.005,1.189,0,1.75
		c-0.061,6.225,1.905,11.763,5.672,16.683c2.993,3.909,6.721,6.986,10.889,9.555c5.483,3.379,11.411,5.703,17.617,7.353
		c4.877,1.296,9.835,2.113,14.866,2.515c3.246,0.259,6.495,0.334,9.746,0.205c6.428-0.254,12.736-1.221,18.857-3.268
		c0.104-0.035,0.211-0.066,0.316-0.095c0.024-0.007,0.053,0.005,0.192,0.024c-0.613,0.313-1.138,0.595-1.675,0.852
		c-4.367,2.094-8.964,3.465-13.717,4.341c-4.693,0.866-9.431,1.225-14.201,1.185c-6.416-0.053-12.744-0.818-18.984-2.312
		c-5.114-1.225-10.061-2.919-14.766-5.279c-3.74-1.876-7.23-4.126-10.279-7.017c-2.809-2.662-5.07-5.705-6.37-9.388
		c-1.513-4.286-1.401-8.586,0.037-12.859c0.439-1.306,1.046-2.555,1.58-3.829C36.37,41.65,36.445,41.534,36.537,41.36z"/>
	<path fill-rule="evenodd" clip-rule="evenodd" fill="#212467" d="M90.901,69.459c-2.683,0-5.32,0-8.016,0
		c0-0.572-0.011-1.135,0.012-1.697c0.003-0.085,0.155-0.198,0.261-0.238c0.244-0.092,0.51-0.127,0.752-0.223
		c0.807-0.316,1.292-0.923,1.355-1.777c0.098-1.31,0.13-2.623,0.184-3.936c0.136-3.288,0.271-6.576,0.399-9.865
		c0.014-0.357,0.009-0.721-0.04-1.074c-0.07-0.52-0.389-0.84-0.907-0.951c-0.282-0.06-0.564-0.118-0.861-0.18
		c0-0.781,0-1.55,0-2.308c1.359,0,2.696-0.001,4.034,0.001c0.512,0,1.027,0.044,1.535,0.003c0.455-0.037,0.664,0.113,0.838,0.549
		c1.321,3.309,2.676,6.604,4.021,9.904c0.07,0.173,0.146,0.343,0.261,0.608c0.164-0.379,0.291-0.662,0.409-0.949
		c1.33-3.23,2.663-6.461,3.979-9.698c0.123-0.3,0.258-0.417,0.596-0.413c1.799,0.02,3.598,0.009,5.397,0.009
		c0.137,0,0.273,0,0.471,0c0,0.647,0.009,1.265-0.011,1.882c-0.002,0.08-0.133,0.185-0.228,0.225
		c-0.149,0.064-0.321,0.074-0.479,0.125c-0.813,0.262-1.185,0.738-1.17,1.598c0.033,1.854,0.088,3.705,0.146,5.557
		c0.092,2.944,0.185,5.889,0.299,8.832c0.063,1.62,0.215,1.719,1.822,2.111c0,0.301,0,0.616,0,0.932c0,0.314,0,0.629,0,0.968
		c-2.783,0-5.519,0-8.289,0c0-0.65,0-1.306,0-1.989c0.115-0.016,0.234-0.037,0.355-0.047c1.125-0.098,1.704-0.705,1.691-1.844
		c-0.017-1.369-0.066-2.737-0.111-4.105c-0.049-1.549-0.115-3.096-0.16-4.645c-0.02-0.614-0.004-1.229-0.004-1.845
		c-0.049-0.007-0.098-0.013-0.147-0.02c-0.136,0.31-0.274,0.616-0.405,0.927c-1.307,3.107-2.615,6.213-3.908,9.324
		c-0.109,0.262-0.236,0.364-0.516,0.346c-0.359-0.023-0.723-0.029-1.079,0.001c-0.329,0.028-0.482-0.089-0.606-0.399
		c-1.382-3.479-2.782-6.949-4.178-10.422c-0.053-0.133-0.115-0.264-0.173-0.395c-0.052,0.006-0.104,0.012-0.157,0.018
		c0,0.807,0.01,1.613-0.001,2.419c-0.04,2.808-0.092,5.616-0.126,8.423c-0.016,1.266,0.401,1.793,1.629,2.148
		c0.04,0.012,0.077,0.031,0.117,0.043c0.329,0.092,0.786,0.086,0.95,0.303c0.168,0.223,0.053,0.662,0.058,1.008
		C90.904,68.938,90.901,69.172,90.901,69.459z"/>
	<path fill-rule="evenodd" clip-rule="evenodd" fill="#212467" d="M133.006,54.452c0,0.147,0,0.294,0,0.44c0,3.309,0,6.615,0,9.924
		c0,1.58,0.475,2.12,2.057,2.342c0.191,0.027,0.381,0.059,0.584,0.091c0,0.735,0,1.452,0,2.2c-2.738,0-5.469,0-8.248,0
		c0-0.658-0.012-1.305,0.014-1.95c0.004-0.091,0.175-0.208,0.292-0.257c0.583-0.242,1.192-0.43,1.759-0.706
		c0.436-0.212,0.641-0.634,0.668-1.124c0.019-0.318,0.041-0.636,0.041-0.953c0.004-4.041,0.006-8.082-0.002-12.123
		c-0.002-0.538-0.044-1.078-0.109-1.611c-0.058-0.482-0.359-0.811-0.818-0.951c-0.514-0.155-1.045-0.256-1.561-0.405
		c-0.111-0.033-0.267-0.172-0.271-0.267c-0.024-0.604-0.013-1.212-0.013-1.846c0.152-0.012,0.271-0.03,0.392-0.03
		c1.813-0.009,3.626-0.009,5.438-0.029c0.309-0.003,0.497,0.088,0.676,0.351c2.912,4.258,5.836,8.508,8.758,12.759
		c0.067,0.098,0.147,0.186,0.275,0.346c0.012-0.185,0.024-0.287,0.024-0.39c0.001-2.962,0.003-5.923,0.001-8.886
		c-0.002-1.071-0.439-1.631-1.479-1.911c-0.346-0.093-0.693-0.174-1.049-0.263c0-0.681,0-1.341,0-2.027c2.391,0,4.764,0,7.168,0
		c0,0.685,0,1.368,0,2.073c-0.072,0.014-0.137,0.031-0.203,0.037c-0.999,0.105-1.621,0.689-1.764,1.68
		c-0.041,0.285-0.058,0.578-0.058,0.867c-0.003,5.688-0.003,11.377-0.003,17.064c0,0.177,0,0.354,0,0.58
		c-0.623,0-1.2,0.018-1.775-0.014c-0.124-0.008-0.266-0.172-0.354-0.296c-3.364-4.786-6.723-9.575-10.083-14.364
		c-0.087-0.125-0.177-0.247-0.266-0.37C133.068,54.44,133.037,54.446,133.006,54.452z"/>
	<path fill-rule="evenodd" clip-rule="evenodd" fill="#212467" d="M67.407,46.322c0.615,2.611,1.225,5.201,1.845,7.833
		c-0.747,0.229-1.469,0.449-2.223,0.681c-0.151-0.286-0.294-0.565-0.444-0.841c-0.697-1.282-1.485-2.5-2.575-3.488
		c-0.938-0.852-1.986-1.376-3.315-1.159c-1.063,0.176-1.902,0.606-2.222,1.707c-0.336,1.154-0.079,2.157,0.841,2.966
		c0.941,0.826,2.05,1.354,3.214,1.768c1,0.357,2.032,0.631,3.023,1.01c1.928,0.74,3.479,1.921,4.277,3.91
		c1.626,4.051-0.758,8.422-5.055,9.141c-1.859,0.311-3.726,0.207-5.484-0.613c-0.533-0.248-1.074-0.275-1.607-0.047
		c-0.646,0.277-1.276,0.594-1.913,0.894c-0.122,0.058-0.241,0.122-0.411,0.208c-0.532-2.705-1.057-5.371-1.59-8.084
		c0.748-0.197,1.475-0.391,2.138-0.565c0.509,0.901,0.945,1.8,1.495,2.621c1.036,1.548,2.391,2.718,4.246,3.187
		c0.937,0.236,1.88,0.307,2.818-0.023c2.119-0.748,2.741-3.449,1.14-5.006c-1.002-0.975-2.278-1.428-3.579-1.84
		c-1.155-0.364-2.359-0.646-3.432-1.186c-2.621-1.317-3.922-3.543-3.938-6.467c-0.016-2.805,2.133-5.494,4.831-6.049
		c1.487-0.306,2.976-0.215,4.383,0.435c0.486,0.225,0.958,0.254,1.437,0.028C65.993,47.017,66.672,46.679,67.407,46.322z"/>
	<path fill-rule="evenodd" clip-rule="evenodd" fill="#212467" d="M127.242,58.396c-0.066,3.524-1.264,6.6-3.983,8.97
		c-4.146,3.611-10.197,2.981-13.679-1.4c-2.061-2.593-2.869-5.571-2.55-8.85c0.325-3.335,1.726-6.124,4.407-8.191
		c3.643-2.805,8.693-2.542,12.059,0.606C126.045,51.918,127.186,54.906,127.242,58.396z M111.486,58.35
		c-0.035,0.006-0.071,0.013-0.106,0.02c0.179,1.213,0.29,2.44,0.554,3.635c0.384,1.736,1.104,3.333,2.402,4.603
		c1.65,1.616,3.707,1.646,5.409,0.104c0.751-0.679,1.31-1.5,1.72-2.415c1.408-3.132,1.588-6.373,0.786-9.683
		c-0.409-1.689-1.103-3.247-2.36-4.493c-1.68-1.663-3.786-1.707-5.492-0.072c-0.511,0.49-0.953,1.083-1.311,1.696
		C111.903,53.781,111.503,56.023,111.486,58.35z"/>
	<path fill-rule="evenodd" clip-rule="evenodd" fill="#212467" d="M109.936,29.566c0-0.508,0-0.986,0-1.547
		c0.868,0,1.721,0.004,2.574-0.001c0.512-0.003,1.024-0.044,1.533-0.016c0.168,0.009,0.377,0.147,0.479,0.289
		c2.058,2.847,4.104,5.702,6.151,8.556c0.232,0.323,0.468,0.645,0.801,0.947c0-0.141,0-0.282,0-0.423c0-1.993,0-3.985,0-5.978
		c0-1.053-0.326-1.504-1.349-1.721c-0.398-0.084-0.516-0.25-0.476-0.631c0.033-0.312,0.007-0.63,0.007-0.968
		c1.801,0,3.564,0,5.357,0c0,0.456,0,0.905,0,1.362c-0.082,0.021-0.161,0.045-0.242,0.061c-0.874,0.178-1.279,0.659-1.283,1.56
		c-0.007,1.577-0.002,3.155-0.002,4.732c0,2.698-0.001,5.397-0.001,8.095c0,0.175,0,0.351,0,0.57c-0.524,0-0.993,0.021-1.457-0.014
		c-0.126-0.01-0.266-0.174-0.354-0.299c-2.237-3.177-4.469-6.358-6.702-9.538c-0.261-0.372-0.526-0.74-0.845-1.189
		c-0.023,0.183-0.047,0.279-0.047,0.375c-0.002,2.353-0.005,4.705,0.001,7.057c0.003,1.314,0.411,1.866,1.684,2.263
		c0.247,0.077,0.329,0.186,0.313,0.434c-0.021,0.288-0.005,0.579-0.005,0.898c-1.981,0-3.938,0-5.948,0
		c0-0.382-0.011-0.765,0.009-1.147c0.004-0.079,0.107-0.177,0.189-0.223c0.168-0.092,0.355-0.151,0.531-0.23
		c0.803-0.361,1.178-0.96,1.17-1.863c-0.023-3.044-0.006-6.089-0.012-9.133c-0.001-0.274-0.027-0.554-0.087-0.821
		c-0.196-0.884-0.745-1.347-1.649-1.425C110.182,29.59,110.086,29.581,109.936,29.566z"/>
	<path fill-rule="evenodd" clip-rule="evenodd" fill="#212467" d="M76.407,43.137c0.153-0.023,0.26-0.041,0.367-0.054
		c0.629-0.08,1.003-0.43,1.099-1.057c0.04-0.258,0.061-0.522,0.061-0.784c0.004-3.335,0.003-6.67,0-10.006
		c0-0.234-0.021-0.469-0.049-0.702c-0.088-0.731-0.434-1.093-1.162-1.172c-0.249-0.027-0.319-0.113-0.323-0.357
		c-0.019-1.02-0.027-1.02,0.975-1.02c2.076,0,4.153-0.038,6.228,0.008c2.777,0.062,5.108,1.057,6.619,3.506
		c1.04,1.687,1.259,3.575,1.143,5.514c-0.077,1.282-0.35,2.521-0.979,3.653c-1.265,2.272-3.273,3.52-5.8,3.692
		c-2.618,0.179-5.254,0.076-7.882,0.1c-0.207,0.002-0.307-0.059-0.298-0.283C76.416,43.845,76.407,43.513,76.407,43.137z
		 M81.382,36.215c0,0-0.001,0-0.001,0c0,1.979-0.005,3.958,0.002,5.938c0.004,0.973-0.141,0.827,0.823,0.868
		c2.515,0.107,4.504-1.263,5.277-3.644c0.446-1.375,0.545-2.795,0.395-4.225c-0.073-0.697-0.187-1.404-0.398-2.069
		c-0.791-2.491-2.776-3.771-5.55-3.664c-0.413,0.016-0.565,0.12-0.559,0.568C81.396,32.062,81.382,34.139,81.382,36.215z"/>
	<path fill-rule="evenodd" clip-rule="evenodd" fill="#212467" d="M80.342,67.581c0,0.646,0,1.239,0,1.865c-2.825,0-5.64,0-8.488,0
		c0-0.626,0-1.267,0-1.907c1.537-0.32,1.728-0.557,1.728-2.141c0-4.732,0-9.464,0-14.195c0-1.544-0.208-1.798-1.74-2.11
		c0-0.627,0-1.258,0-1.915c2.824,0,5.639,0,8.483,0c0,0.614,0,1.229,0,1.87c-0.225,0.043-0.455,0.082-0.682,0.132
		c-1.116,0.245-1.547,0.776-1.547,1.909c-0.001,4.801-0.001,9.602,0,14.402c0,1.228,0.518,1.819,1.74,2.003
		C79.999,67.518,80.16,67.549,80.342,67.581z"/>
	<path fill-rule="evenodd" clip-rule="evenodd" fill="#212467" d="M101.613,27.842c2.684,0.066,4.674,1.343,6.103,3.553
		c2.021,3.124,1.779,7.516-0.544,10.424c-2.956,3.702-8.131,3.72-11.123,0.04c-3.043-3.744-2.439-9.654,1.291-12.541
		C98.592,28.348,100.008,27.827,101.613,27.842z M105.802,36.208c-0.118-0.859-0.181-1.73-0.366-2.575
		c-0.307-1.396-0.863-2.688-1.97-3.659c-1.196-1.049-2.637-1.02-3.812,0.054c-0.602,0.55-1.039,1.218-1.359,1.961
		c-0.906,2.097-1.049,4.274-0.617,6.495c0.287,1.474,0.832,2.834,1.947,3.9c1.143,1.091,2.615,1.141,3.809,0.105
		c0.32-0.278,0.611-0.606,0.85-0.957C105.366,39.93,105.72,38.121,105.802,36.208z"/>
	<path fill-rule="evenodd" clip-rule="evenodd" fill="#212467" d="M82.057,69.429c-0.213,0-0.344,0-0.549,0
		c0-0.44,0.004-0.878-0.002-1.314c-0.004-0.29,0.001-0.583-0.041-0.867c-0.115-0.782-0.542-1.196-1.322-1.32
		c-0.177-0.028-0.356-0.046-0.533-0.075c-0.266-0.043-0.42-0.19-0.432-0.471c-0.006-0.166-0.031-0.332-0.031-0.496
		c-0.001-4.373-0.001-8.746,0-13.118c0-0.083-0.002-0.167,0.001-0.249c0.031-0.633,0.117-0.724,0.753-0.799
		c1.136-0.133,1.6-0.653,1.606-1.805c0.003-0.566,0-1.133,0-1.73c0.172,0,0.314,0,0.57,0c-0.071,0.889-0.08,1.787-0.232,2.66
		c-0.137,0.791-0.46,0.989-1.252,1.059c-0.658,0.059-0.79,0.197-0.791,0.852c0,4.372,0,8.744,0,13.117
		c0,0.643,0.112,0.84,0.754,0.818c0.858-0.028,1.245,0.564,1.344,1.246C82.019,67.748,82.009,68.579,82.057,69.429z"/>
	<path fill-rule="evenodd" clip-rule="evenodd" fill="#212467" d="M122.061,69.475c0.734-0.555,1.545-1.066,2.234-1.707
		c1.918-1.783,3.006-4.058,3.544-6.576c0.967-4.529-0.179-8.536-3.198-12.014c-0.741-0.854-1.676-1.48-2.69-1.98
		c0.009-0.038,0.017-0.074,0.024-0.112c0.233,0.051,0.484,0.063,0.697,0.158c1.005,0.448,1.811,1.169,2.535,1.974
		c2.42,2.686,3.68,5.841,3.547,9.458c-0.152,4.196-1.874,7.65-5.243,10.224C122.859,69.396,122.482,69.508,122.061,69.475z"/>
	<path fill-rule="evenodd" clip-rule="evenodd" fill="#212467" d="M147.291,69.465c-0.213,0-0.363,0-0.569,0
		c0-0.176,0-0.336,0-0.498c0-5.841,0-11.682,0.001-17.523c0-0.817,0.115-0.952,0.918-1.062c0.62-0.085,1.138-0.78,1.165-1.574
		c0.009-0.263,0.002-0.526,0.002-0.789c0.001-0.247,0-0.493,0-0.777c0.186-0.01,0.341-0.019,0.629-0.034
		c-0.1,0.824-0.142,1.594-0.3,2.34c-0.109,0.516-0.483,0.832-1.072,0.871c-0.594,0.039-0.773,0.305-0.773,1
		c0,5.841,0,11.682,0,17.523C147.291,69.104,147.291,69.268,147.291,69.465z"/>
	<path fill-rule="evenodd" clip-rule="evenodd" fill="#212467" d="M107.563,69.461c-0.133,0.006-0.266,0.012-0.476,0.022
		c0-0.458-0.001-0.894,0-1.331c0.001-0.92-0.245-1.313-1.088-1.651c-0.427-0.171-0.614-0.458-0.634-0.915
		c-0.14-3.343-0.295-6.685-0.436-10.027c-0.061-1.408-0.106-2.818-0.145-4.228c-0.016-0.597,0.025-0.628,0.611-0.791
		c0.913-0.253,1.303-0.753,1.32-1.708c0.008-0.401,0.023-0.804-0.006-1.203c-0.029-0.393,0.099-0.549,0.49-0.437
		c0,0.766,0.037,1.536-0.014,2.3c-0.035,0.53-0.402,0.855-0.909,1.019c-0.195,0.063-0.427,0.113-0.558,0.25
		c-0.168,0.173-0.357,0.43-0.352,0.646c0.041,1.977,0.123,3.952,0.194,5.929c0.05,1.395,0.1,2.791,0.149,4.186
		c0.049,1.396,0.105,2.791,0.141,4.188c0.01,0.369,0.171,0.548,0.516,0.635c0.703,0.178,1.22,0.84,1.232,1.564
		c0.008,0.47,0,0.94-0.002,1.411C107.6,69.357,107.58,69.396,107.563,69.461z"/>
	<path fill-rule="evenodd" clip-rule="evenodd" fill="#212467" d="M68.501,69.6c0.678-0.844,1.464-1.641,2.035-2.568
		c1.826-2.971,1.301-7.678-2.448-10.104c-1.445-0.936-3.05-1.475-4.668-1.996c-1.09-0.354-2.186-0.703-3.125-1.396
		c-0.595-0.439-0.938-0.993-0.854-1.771c0.085-0.783,0.462-1.18,1.189-1.258c-0.166,0.278-0.428,0.571-0.525,0.911
		c-0.294,1.03,0,1.772,0.963,2.249c0.837,0.413,1.729,0.727,2.613,1.033c1.541,0.535,3.065,1.094,4.496,1.895
		c3.638,2.039,4.37,6,3.606,8.831c-0.365,1.354-1.12,2.521-2.123,3.511C69.316,69.277,68.927,69.549,68.501,69.6z"/>
	<path fill-rule="evenodd" clip-rule="evenodd" fill="#212467" d="M126.151,28.07c0.212,0,0.358,0,0.536,0
		c0,0.528,0.031,1.039-0.01,1.544c-0.036,0.464-0.383,0.753-0.786,0.879c-0.606,0.189-0.724,0.568-0.72,1.155
		c0.023,4.065,0.012,8.131,0.012,12.197c0,0.178,0,0.356,0,0.583c-0.184,0.009-0.338,0.018-0.543,0.028c0-0.185,0-0.333,0-0.481
		c0-4.176,0-8.352,0-12.528c0-0.688,0-0.688,0.664-0.944c0.66-0.254,0.846-0.527,0.847-1.249
		C126.152,28.87,126.151,28.485,126.151,28.07z"/>
	<path fill-rule="evenodd" clip-rule="evenodd" fill="#212467" d="M105.893,44.43c5.763-3.62,5.842-12.589-0.007-16.4
		c0.365-0.114,0.532-0.1,0.884,0.184c2.002,1.617,3.414,3.637,3.879,6.187c0.734,4.022-0.805,7.213-3.832,9.785
		c-0.23,0.196-0.574,0.258-0.865,0.383C105.932,44.522,105.912,44.476,105.893,44.43z"/>
	<path fill-rule="evenodd" clip-rule="evenodd" fill="#212467" d="M87.868,44.58c3.295-1.82,4.689-4.747,4.687-8.371
		c-0.002-3.623-1.411-6.543-4.713-8.361c0.021-0.037,0.041-0.074,0.061-0.111c0.263,0.107,0.551,0.174,0.785,0.326
		c2.137,1.392,3.655,3.24,4.145,5.804c0.467,2.44,0.326,4.819-0.842,7.065c-0.789,1.517-2.009,2.625-3.434,3.524
		c-0.195,0.124-0.442,0.164-0.666,0.243C87.883,44.659,87.875,44.619,87.868,44.58z"/>
	<path fill-rule="evenodd" clip-rule="evenodd" fill="#212467" d="M141.725,57.015c-2.237-3.224-4.474-6.446-6.73-9.701
		c0.407-0.138,0.672-0.114,0.933,0.264c1.887,2.73,3.812,5.434,5.684,8.173c0.22,0.322,0.188,0.815,0.274,1.229
		C141.83,56.992,141.777,57.004,141.725,57.015z"/>
	<path fill-rule="evenodd" clip-rule="evenodd" fill="#212467" d="M134.041,57.982c0.373,0.326,0.563,0.613,0.556,1.069
		c-0.028,1.895,0.004,3.79-0.021,5.685c-0.008,0.617,0.256,1.004,0.793,1.222c0.369,0.149,0.758,0.253,1.139,0.373
		c0.473,0.149,0.769,0.474,0.793,0.958c0.035,0.713,0.01,1.431,0.01,2.168c-0.184,0-0.343,0-0.555,0c0-0.545,0.002-1.08,0-1.615
		c-0.003-0.887-0.287-1.277-1.131-1.563c-1.547-0.523-1.584-0.574-1.584-2.235C134.041,62.052,134.041,60.061,134.041,57.982z"/>
	<path fill-rule="evenodd" clip-rule="evenodd" fill="#212467" d="M92.562,69.465c-0.202,0-0.352,0-0.56,0
		c0-0.635-0.023-1.266,0.009-1.895c0.019-0.383-0.123-0.608-0.466-0.724c-0.458-0.153-0.917-0.299-1.377-0.446
		c-0.535-0.172-0.839-0.533-0.842-1.098c-0.009-1.766-0.003-3.533-0.003-5.3c0.065-0.007,0.129-0.014,0.194-0.021
		c0.102,0.454,0.277,0.906,0.291,1.363c0.04,1.325,0.023,2.652,0.007,3.979c-0.003,0.294,0.099,0.479,0.353,0.585
		c0.547,0.228,1.095,0.453,1.647,0.667c0.639,0.247,0.748,0.394,0.748,1.063C92.562,68.234,92.562,68.826,92.562,69.465z"/>
	<path fill-rule="evenodd" clip-rule="evenodd" fill="#212467" d="M70.908,53.752c-0.203,0.045-0.383,0.086-0.612,0.137
		c-0.586-2.521-1.165-5.01-1.752-7.538c0.201-0.033,0.357-0.059,0.549-0.09C69.699,48.763,70.299,51.237,70.908,53.752z"/>
	<path fill-rule="evenodd" clip-rule="evenodd" fill="#212467" d="M91.505,47.27c0.361-0.106,0.53,0.004,0.667,0.349
		c0.902,2.254,1.824,4.5,2.764,6.739c0.163,0.387,0.104,0.676-0.155,1.037C93.677,52.657,92.591,49.964,91.505,47.27z"/>
	<path fill-rule="evenodd" clip-rule="evenodd" fill="#212467" d="M115.275,37.104c0.417,0.387,0.58,0.747,0.561,1.235
		c-0.037,0.979,0.002,1.961-0.017,2.941c-0.007,0.348,0.112,0.536,0.45,0.627c0.359,0.097,0.707,0.233,1.058,0.356
		c0.272,0.097,0.427,0.263,0.413,0.584c-0.021,0.521-0.005,1.042-0.005,1.584c-0.177,0-0.309,0-0.496,0
		c0-0.434,0.001-0.857-0.001-1.281c-0.002-0.599-0.105-0.745-0.662-0.939c-0.299-0.104-0.616-0.175-0.893-0.323
		c-0.168-0.09-0.387-0.296-0.391-0.455C115.264,40.019,115.275,38.601,115.275,37.104z"/>
	<path fill-rule="evenodd" clip-rule="evenodd" fill="#212467" d="M95.613,66.693c0.903-2.166,1.799-4.313,2.694-6.46
		c0.06,0.657,0.111,1.285-0.179,1.921c-0.623,1.367-1.191,2.761-1.756,4.154C96.23,66.661,96.059,66.838,95.613,66.693z"/>
	<path fill-rule="evenodd" clip-rule="evenodd" fill="#212467" d="M115.869,28.092c0.32-0.106,0.492-0.002,0.656,0.236
		c1.197,1.743,2.416,3.472,3.606,5.219c0.142,0.208,0.163,0.497,0.239,0.749c-0.045,0.021-0.09,0.041-0.135,0.062
		C118.783,32.273,117.33,30.188,115.869,28.092z"/>
	<path fill-rule="evenodd" clip-rule="evenodd" fill="#212467" d="M62.433,66.479c-2.211-0.278-4.464-2.919-5.285-5.113
		c0.357,0.015,0.594,0.103,0.731,0.5C58.409,63.413,60.361,65.686,62.433,66.479z"/>
	<path fill-rule="evenodd" clip-rule="evenodd" fill="#FFFFFF" d="M116.727,66.462c-1.183-0.514-1.943-1.435-2.468-2.567
		c-0.208-0.449-0.386-0.92-0.509-1.398c-0.65-2.533-0.682-5.093-0.171-7.647c0.396-1.974,1.156-3.743,3.123-4.701
		c-0.571,0.054-1.066,0.271-1.502,0.633c-0.736,0.61-1.199,1.41-1.525,2.287c-1.188,3.193-1.249,6.428-0.282,9.686
		c0.322,1.082,0.779,2.1,1.61,2.904C115.482,66.123,116.043,66.419,116.727,66.462z"/>
	<path fill-rule="evenodd" clip-rule="evenodd" fill="#212467" d="M116.727,66.462c-0.684-0.043-1.244-0.339-1.724-0.804
		c-0.831-0.805-1.288-1.822-1.61-2.904c-0.967-3.258-0.905-6.492,0.282-9.686c0.326-0.877,0.789-1.677,1.525-2.287
		c0.436-0.362,0.931-0.58,1.502-0.633c-1.967,0.958-2.728,2.727-3.123,4.701c-0.511,2.555-0.479,5.114,0.171,7.647
		c0.123,0.479,0.301,0.949,0.509,1.398C114.783,65.027,115.544,65.948,116.727,66.462z"/>
	<path fill-rule="evenodd" clip-rule="evenodd" fill="#212467" d="M82.539,30.55c0.479-0.092,0.504,0.202,0.504,0.535
		c-0.002,2.6,0,5.201,0,7.801c0,0.858-0.002,1.715,0,2.573c0.001,0.32-0.111,0.508-0.503,0.438
		C82.539,38.117,82.539,34.337,82.539,30.55z"/>
	<path fill-rule="evenodd" clip-rule="evenodd" fill="#212467" d="M101.379,41.964c-0.75-0.113-1.242-0.561-1.631-1.135
		c-0.604-0.891-0.859-1.907-0.98-2.958c-0.203-1.773-0.186-3.542,0.475-5.226c0.23-0.587,0.636-1.121,1.036-1.619
		c0.206-0.256,0.577-0.378,0.909-0.516c-1.691,1.374-1.892,3.306-1.947,5.24c-0.032,1.107,0.102,2.235,0.303,3.328
		C99.805,40.508,100.25,41.099,101.379,41.964z"/>
</g>
</svg>
