<?xml version="1.0" encoding="utf-8"?>
<!-- Generator: Adobe Illustrator 16.0.0, SVG Export Plug-In . SVG Version: 6.00 Build 0)  -->
<!DOCTYPE svg PUBLIC "-//W3C//DTD SVG 1.1//EN" "http://www.w3.org/Graphics/SVG/1.1/DTD/svg11.dtd">
<svg version="1.1" id="Capa_1" xmlns="http://www.w3.org/2000/svg" xmlns:xlink="http://www.w3.org/1999/xlink" x="0px" y="0px"
	 width="200px" height="100px" viewBox="0 0 200 100" enable-background="new 0 0 200 100" xml:space="preserve">
<g>
	
		<linearGradient id="path251_1_" gradientUnits="userSpaceOnUse" x1="634.7266" y1="799.0117" x2="596.3212" y2="856.2837" gradientTransform="matrix(1 0 0 1 -523.248 -768.9346)">
		<stop  offset="0" style="stop-color:#D31145"/>
		<stop  offset="0.3484" style="stop-color:#B3083A"/>
		<stop  offset="0.7835" style="stop-color:#8F002B"/>
		<stop  offset="1" style="stop-color:#820024"/>
	</linearGradient>
	<path id="path251" fill="url(#path251_1_)" d="M148.232,32.277c5.391,17.372-11.854,38.163-38.517,46.434
		c-26.661,8.273-52.645,0.898-58.036-16.468C46.291,44.87,63.534,24.079,90.196,15.807C116.859,7.531,142.843,14.907,148.232,32.277
		z"/>
	<path id="path257" d="M67.165,73.46l9.358-3.298c0,0-1.198-0.865-1.396-3.238c-0.197-2.371-0.658-12.189-0.658-12.189
		s5.932-0.924,10.214-5.208c4.285-4.284,6.459-12.719-0.263-18.519c-6.722-5.799-19.572,1.979-23.461,7.909
		c-3.888,5.931-6.415,12.101-3.924,21.065c2.362,8.51,8.431,10.689,8.431,10.689s-6.625-4.667-6.474-14.829
		c0.152-10.161,8.281-20.023,17.163-20.7c8.883-0.677,7.829,15.205-1.656,16.333l-0.828-14.15c0,0-3.839,0.903-6.549,4.29
		l1.28,25.519C68.4,67.135,68.566,71.73,67.165,73.46z"/>
	<path id="path259" d="M139.313,33.256c-3.584,0-4.291,3.096-4.291,3.096l0.043-1.636l-5.44,1.991
		c0.795,0.398,0.928,1.548,0.928,1.548l0.431,6.844c0,0-2.068,5.109-5.953,5.152c0,0-2.238,0.211-2.875-1.922
		c0,0,4.066,0.753,6.397-2.935c2.332-3.688,0.075-7.376-3.085-7.376c-3.162,0-7.979,3.161-7.828,9.033
		c0.15,5.871,4.213,6.871,6.098,6.773c0,0,4.906,0.093,7.675-5.865c0,0,0.25,1.764-0.504,2.951l5.53-1.99
		c-0.885-0.664-0.885-2.301-0.885-2.301l-0.266-5.796c0,0-0.133-3.407,2.033-3.407c2.171,0,0.621,2.61,0.621,2.61
		C143.383,40.733,142.896,33.256,139.313,33.256z M121.775,46.297c-0.602-6.398,3.766-6.624,3.466-3.237
		C124.939,46.447,121.775,46.297,121.775,46.297z"/>
	<path id="path261" d="M109.463,42.126l5.739-2.24c-0.882-0.663-0.886-2.301-0.886-2.301l-0.266-5.796c0,0-0.132-3.407,2.036-3.407
		c2.167,0,0.618,2.61,0.618,2.61c5.443,0.708,4.956-6.77,1.372-6.77c-3.585,0-4.291,3.098-4.291,3.098l0.043-1.636l-5.44,1.992
		c0.797,0.397,0.93,1.547,0.93,1.547l0.535,9.729C109.854,38.951,110.043,41.289,109.463,42.126z"/>
	<path id="path263" d="M98.509,47.564c0,0-1.958,0.451-3.237,2.484l-0.131-1.132l-5.447,1.814c0,0,1.057,0.467,1.099,3.168
		l0.21,5.49c0,0-2.069,5.105-5.953,5.15c0,0-2.238,0.211-2.875-1.921c0,0,4.064,0.753,6.398-2.937
		c2.332-3.688,0.075-7.375-3.086-7.375c-3.162,0-7.979,3.159-7.829,9.029c0.15,5.872,4.212,6.872,6.097,6.775
		c2.181-0.111,5.646-1.883,7.527-5.194l0.226,6.774c0,0-0.075,2.259-0.679,3.16l6.098-2.182c0,0-0.677-0.828-0.903-2.334
		l-0.227-4.816c0,0,5.192-0.451,7.001-6.097C104.604,51.779,102.723,46.435,98.509,47.564z M81.798,60.585
		c-0.602-6.397,3.764-6.622,3.462-3.237C84.959,60.734,81.798,60.585,81.798,60.585z M95.667,60.813l-0.437-8.016
		c0,0,3.443-3.632,3.943,1.564C99.674,59.559,95.667,60.813,95.667,60.813z"/>
	<path id="path265" d="M112.23,42.568c0,0-1.959,0.451-3.237,2.483l-0.13-1.131l-5.448,1.816c0,0,1.056,0.464,1.099,3.166
		l0.717,15.792c0,0-0.074,2.259-0.676,3.164l6.098-2.185c0,0-0.68-0.825-0.904-2.331l-0.225-4.816c0,0,5.192-0.453,7-6.1
		C118.327,46.783,116.445,41.438,112.23,42.568z M109.391,55.814l-0.438-8.015c0,0,3.444-3.633,3.946,1.565
		C113.396,54.563,109.391,55.814,109.391,55.814z"/>
	<path id="path267" d="M95.791,23.598l-8.006,2.666c0,0,1.949,1.012,1.87,3.739l0.859,14.961c0,0,0.076,3.322-1.011,4.22
		l10.594-3.879c0,0,7.898-2.743,7.471-14.14C107.143,19.768,97.117,23.314,95.791,23.598z M95.981,43.556l-0.947-15.89
		c2.08-1.656,7.045-2.222,7.093,5.911C102.175,41.709,95.981,43.556,95.981,43.556z"/>
	<path id="path269" d="M111.3,59.199c0,0,0.354,0.316,0.374,0.822l0.074,3.859c0,0,0.018,0.337-0.111,0.523l2.938-1.065l0.021-1.181
		c0,0-0.318,0.357-0.601,0.449l-1.05,0.432V61.71c0,0,0.656-0.339,0.938-0.112v-1.313c0,0-0.543,0.472-0.99,0.581v-1.198
		c0,0,1.012-0.507,1.366-0.3v-1.124L111.3,59.199z"/>
	<path id="path271" d="M116.938,59.762h-0.674c0,0-0.451,0.037-0.394,0.469c0.056,0.429,1.422,0.092,1.479,1.088
		c0.055,0.99-0.863,1.796-2.342,1.796v-1.028c0,0,0.188,0.188,0.655,0.188c0.469,0,0.675-0.281,0.675-0.506
		c0-0.227-0.189-0.3-0.845-0.449c-0.654-0.149-0.767-0.807-0.616-1.273c0.148-0.469,0.729-1.145,2.061-1.05V59.762L116.938,59.762z"
		/>
	<path id="path273" d="M117.773,59.352l-0.504,0.1l0.53-1.483c0,0,0.294-0.403,0.88-0.392v0.645l0.7-0.322v0.881l-0.687,0.281v1.764
		c0,0,0.07,0.32,0.673,0.277v0.42c0,0-0.31,0.576-0.923,0.617c-0.615,0.039-0.688-0.98-0.688-0.98L117.773,59.352z"/>
	<path id="path275" d="M120.71,60.771c-0.077,0.365-0.354,0.662-0.621,0.662s-0.421-0.297-0.345-0.662
		c0.078-0.367,0.355-0.664,0.622-0.664C120.633,60.105,120.786,60.402,120.71,60.771z"/>
	<path id="path277" d="M121.059,56.777l1.371-1.131l0.127,4.109c0,0,0.084,0.434,0.362,0.645l-1.538,0.531
		c0,0,0.237-0.308,0.237-0.671l-0.097-2.907C121.521,57.354,121.423,56.904,121.059,56.777z"/>
	<path id="path281" d="M125.408,56.85c0.77-0.644,0.67-1.945-0.127-2.072c-0.797-0.125-1.901,0.631-2.112,1.566
		c-0.208,0.939,0.659,1.246,0.659,1.246c-1.092,0.881-0.84,2.335,0.097,2.363c0.938,0.029,2.058-0.615,2.296-1.746
		C126.456,57.072,125.408,56.85,125.408,56.85z M124.682,55.563c0.807-0.177-0.016,1.104-0.016,1.104S123.659,55.786,124.682,55.563
		z M124.484,59.212c-0.879-0.058,0-1.371,0-1.371C125.366,58.052,125.366,59.268,124.484,59.212z"/>
	<path id="path283" d="M128.932,55.604c0.77-0.645,0.672-1.943-0.125-2.07c-0.799-0.126-1.902,0.63-2.111,1.566
		s0.656,1.243,0.656,1.243c-1.09,0.882-0.838,2.337,0.099,2.365s2.055-0.616,2.293-1.749
		C129.982,55.828,128.932,55.604,128.932,55.604z M128.204,54.318c0.81-0.178-0.015,1.104-0.015,1.104
		S127.186,54.542,128.204,54.318z M128.008,57.967c-0.881-0.056,0-1.369,0-1.369C128.891,56.807,128.891,58.021,128.008,57.967z"/>
	<path id="path285" d="M130.219,52.977v2.545l0.475,0.154c0,0,0.238-0.742,0.938-0.588c0.699,0.153,0.378,1.748-0.77,1.622
		c0,0-0.432,0-0.614-0.278v1.104c0,0,0.224,0.096,0.644,0.083c0.42-0.016,1.721-0.406,2.111-1.65c0.391-1.246-0.266-2.572-2-1.343
		v-0.823l1.596-0.631v-1.035L130.219,52.977z"/>
	<g id="g287">
		<path id="path289" fill="#FFFFFF" stroke="#000000" stroke-width="0.25" d="M65.907,72.201l9.358-3.297
			c0,0-1.199-0.868-1.396-3.239c-0.198-2.37-0.659-12.19-0.659-12.19s5.932-0.923,10.215-5.206
			c4.282-4.284,6.458-12.719-0.264-18.518c-6.722-5.799-19.571,1.978-23.461,7.908c-3.888,5.931-6.416,12.099-3.925,21.065
			c2.363,8.506,8.432,10.688,8.432,10.688s-6.625-4.666-6.475-14.827c0.151-10.162,8.282-20.023,17.164-20.7
			c8.882-0.679,7.829,15.204-1.656,16.334l-0.83-14.152c0,0-3.838,0.903-6.55,4.29l1.28,25.518
			C67.141,65.876,67.307,70.471,65.907,72.201z"/>
		<path id="path291" fill="#FFFFFF" stroke="#000000" stroke-width="0.25" d="M138.055,31.997c-3.584,0-4.291,3.097-4.291,3.097
			l0.043-1.636l-5.441,1.991c0.797,0.398,0.929,1.548,0.929,1.548l0.431,6.843c0,0-2.07,5.109-5.953,5.151
			c0,0-2.237,0.211-2.875-1.921c0,0,4.064,0.752,6.399-2.936c2.332-3.688,0.074-7.376-3.087-7.376c-3.162,0-7.979,3.161-7.829,9.033
			s4.213,6.872,6.099,6.773c0,0,4.904,0.092,7.674-5.864c0,0,0.252,1.763-0.504,2.951l5.533-1.991
			c-0.885-0.663-0.886-2.301-0.886-2.301l-0.267-5.796c0,0-0.133-3.407,2.035-3.407s0.619,2.61,0.619,2.61
			C142.125,39.475,141.641,31.997,138.055,31.997z M120.52,45.038c-0.603-6.398,3.765-6.624,3.463-3.237
			C123.682,45.188,120.52,45.038,120.52,45.038z"/>
		<path id="path293" fill="#FFFFFF" stroke="#000000" stroke-width="0.25" d="M108.203,40.867l5.738-2.24
			c-0.883-0.664-0.883-2.301-0.883-2.301l-0.267-5.796c0,0-0.134-3.407,2.035-3.407c2.166,0,0.62,2.61,0.62,2.61
			c5.441,0.708,4.955-6.77,1.369-6.77c-3.584,0-4.291,3.097-4.291,3.097l0.043-1.636l-5.44,1.991
			c0.796,0.397,0.931,1.548,0.931,1.548l0.537,9.729C108.596,37.692,108.786,40.03,108.203,40.867z"/>
		<path id="path295" fill="#FFFFFF" stroke="#000000" stroke-width="0.25" d="M97.249,46.305c0,0-1.958,0.452-3.236,2.484
			l-0.129-1.131l-5.449,1.816c0,0,1.057,0.463,1.099,3.165l0.21,5.49c0,0-2.068,5.107-5.953,5.15c0,0-2.238,0.211-2.874-1.92
			c0,0,4.064,0.752,6.397-2.938c2.333-3.688,0.075-7.375-3.086-7.375s-7.979,3.161-7.827,9.032c0.149,5.87,4.211,6.87,6.097,6.775
			c2.182-0.113,5.646-1.885,7.527-5.196l0.227,6.774c0,0-0.076,2.258-0.679,3.164l6.097-2.185c0,0-0.676-0.829-0.901-2.331
			l-0.228-4.816c0,0,5.195-0.453,7-6.101C103.348,50.521,101.464,45.177,97.249,46.305z M80.538,59.326
			C79.936,52.93,84.302,52.704,84,56.09C83.701,59.479,80.538,59.326,80.538,59.326z M94.408,59.553l-0.438-8.016
			c0,0,3.445-3.631,3.943,1.566C98.416,58.302,94.408,59.553,94.408,59.553z"/>
		<path id="path297" fill="#FFFFFF" stroke="#000000" stroke-width="0.25" d="M110.971,41.309c0,0-1.957,0.451-3.236,2.483
			l-0.131-1.132l-5.446,1.816c0,0,1.057,0.464,1.099,3.166l0.719,15.793c0,0-0.078,2.258-0.679,3.16l6.097-2.182
			c0,0-0.677-0.829-0.904-2.334l-0.225-4.816c0,0,5.194-0.449,7-6.097C117.066,45.522,115.188,40.18,110.971,41.309z M108.13,54.557
			l-0.438-8.015c0,0,3.444-3.632,3.943,1.565C112.137,53.307,108.13,54.557,108.13,54.557z"/>
		<path id="path299" fill="#FFFFFF" stroke="#000000" stroke-width="0.25" d="M94.532,22.339l-8.006,2.666
			c0,0,1.948,1.012,1.871,3.74l0.857,14.961c0,0,0.077,3.321-1.01,4.219l10.593-3.878c0,0,7.897-2.743,7.474-14.141
			C105.883,18.508,95.858,22.056,94.532,22.339z M94.721,42.298l-0.946-15.891c2.082-1.656,7.047-2.223,7.095,5.911
			C100.917,40.452,94.721,42.298,94.721,42.298z"/>
		<path id="path301" fill="#FFFFFF" stroke="#000000" stroke-width="0.25" d="M110.813,58.712c0,0,0.355,0.317,0.377,0.824
			l0.074,3.858c0,0,0.018,0.338-0.113,0.523l2.939-1.064l0.02-1.184c0,0-0.315,0.357-0.598,0.453l-1.051,0.429v-1.329
			c0,0,0.656-0.338,0.938-0.111v-1.313c0,0-0.543,0.47-0.994,0.581v-1.197c0,0,1.014-0.508,1.369-0.302v-1.124L110.813,58.712z"/>
		<path id="path303" fill="#FFFFFF" stroke="#000000" stroke-width="0.25" d="M116.45,59.273h-0.675c0,0-0.449,0.039-0.393,0.469
			s1.424,0.093,1.479,1.088c0.057,0.992-0.861,1.797-2.34,1.797v-1.029c0,0,0.188,0.188,0.653,0.188
			c0.468,0,0.677-0.282,0.677-0.509c0-0.223-0.188-0.299-0.845-0.446c-0.655-0.149-0.769-0.806-0.616-1.272
			c0.148-0.473,0.729-1.146,2.061-1.054L116.45,59.273L116.45,59.273z"/>
		<path id="path305" fill="#FFFFFF" stroke="#000000" stroke-width="0.25" d="M117.286,58.864l-0.501,0.099l0.529-1.482
			c0,0,0.295-0.404,0.881-0.392v0.646l0.699-0.323v0.881l-0.687,0.278v1.763c0,0,0.069,0.321,0.671,0.282v0.421
			c0,0-0.309,0.573-0.922,0.612c-0.614,0.043-0.686-0.979-0.686-0.979L117.286,58.864z"/>
		<path id="path307" fill="#FFFFFF" stroke="#000000" stroke-width="0.25" d="M120.225,60.285c-0.076,0.365-0.354,0.663-0.621,0.663
			c-0.268,0-0.422-0.298-0.345-0.663c0.077-0.368,0.354-0.665,0.622-0.665S120.301,59.917,120.225,60.285z"/>
		<path id="path309" fill="#FFFFFF" stroke="#000000" stroke-width="0.25" d="M120.573,56.291l1.37-1.131l0.125,4.109
			c0,0,0.086,0.435,0.363,0.646l-1.537,0.53c0,0,0.236-0.309,0.236-0.672l-0.097-2.909
			C121.035,56.864,120.936,56.418,120.573,56.291z"/>
		<path id="path311" fill="#FFFFFF" stroke="#000000" stroke-width="0.25" d="M17.629-18.598"/>
		<path id="path313" fill="#FFFFFF" stroke="#000000" stroke-width="0.25" d="M124.923,56.361c0.769-0.643,0.67-1.943-0.127-2.07
			c-0.797-0.126-1.901,0.631-2.112,1.566c-0.209,0.938,0.659,1.244,0.659,1.244c-1.092,0.883-0.841,2.336,0.097,2.364
			c0.938,0.029,2.058-0.614,2.295-1.749C125.971,56.586,124.923,56.361,124.923,56.361z M124.195,55.076
			c0.806-0.178-0.016,1.104-0.016,1.104S123.174,55.3,124.195,55.076z M123.999,58.727c-0.88-0.059,0-1.371,0-1.371
			C124.881,57.564,124.881,58.779,123.999,58.727z"/>
		<path id="path315" fill="#FFFFFF" stroke="#000000" stroke-width="0.25" d="M128.445,55.118c0.77-0.644,0.673-1.945-0.125-2.071
			c-0.799-0.126-1.901,0.629-2.111,1.566c-0.209,0.938,0.656,1.244,0.656,1.244c-1.09,0.881-0.84,2.336,0.099,2.365
			c0.937,0.026,2.056-0.615,2.293-1.75C129.496,55.342,128.445,55.118,128.445,55.118z M127.719,53.832
			c0.805-0.178-0.014,1.104-0.014,1.104S126.698,54.055,127.719,53.832z M127.521,57.48c-0.881-0.056,0-1.371,0-1.371
			C128.402,56.32,128.402,57.536,127.521,57.48z"/>
		<path id="path317" fill="#FFFFFF" stroke="#000000" stroke-width="0.25" d="M129.73,52.489v2.545l0.478,0.153
			c0,0,0.237-0.74,0.937-0.586c0.698,0.152,0.379,1.746-0.77,1.623c0,0-0.434,0-0.615-0.281v1.104c0,0,0.225,0.1,0.645,0.084
			c0.419-0.013,1.721-0.404,2.111-1.65c0.391-1.244-0.267-2.572-2-1.34v-0.828l1.594-0.627V51.65L129.73,52.489z"/>
	</g>
	<path id="path319" fill="#FFFFFF" stroke="#000000" stroke-width="0.075" d="M138.08,45.86c0,0,0.378-0.14,0.168-0.573
		c-0.209-0.435-0.656-0.251-0.656-0.251l-0.729,0.363l0.267,1.636l0.404-0.084l-0.069-0.601c0.503-0.28,0.561,0.378,0.561,0.378
		l0.488-0.182C138.359,45.931,138.08,45.86,138.08,45.86z M137.787,45.777l-0.35,0.098l-0.043-0.308
		C137.954,45.301,137.787,45.777,137.787,45.777z"/>
	<path id="path321" fill="#FFFFFF" stroke="#000000" stroke-width="0.075" d="M137.87,44.378c-0.825-0.01-1.599,0.706-1.728,1.597
		c-0.131,0.892,0.438,1.623,1.267,1.633c0.825,0.01,1.6-0.706,1.729-1.598C139.268,45.119,138.698,44.389,137.87,44.378z
		 M138.826,46.007c-0.104,0.708-0.717,1.274-1.369,1.266c-0.654-0.008-1.105-0.587-1.002-1.294c0.102-0.706,0.716-1.274,1.368-1.265
		C138.479,44.722,138.927,45.301,138.826,46.007z"/>
	<path id="path323" d="M145.268,32.246c4.858,15.658-10.894,34.459-35.181,41.998c-12.203,3.785-24.235,4.007-33.808,1.306
		c10.047,3.892,23.609,4.162,37.388-0.11c24.287-7.539,40.039-26.34,35.179-41.999c-2.416-7.791-9.482-13.332-18.967-16.008
		C137.544,20.399,143.163,25.47,145.268,32.246z"/>
	<path id="path325" fill="#FFFFFF" d="M143.699,31.575c4.859,15.657-10.891,34.459-35.18,41.998
		c-12.202,3.784-24.234,4.007-33.808,1.304C84.76,78.77,98.321,79.04,112.1,74.768c24.289-7.537,40.039-26.342,35.18-41.999
		c-2.418-7.791-9.484-13.332-18.967-16.009C135.977,19.729,141.598,24.8,143.699,31.575z"/>
</g>
</svg>
