<svg id="Capa_1" data-name="Capa 1" xmlns="http://www.w3.org/2000/svg" width="134.21" height="32" viewBox="0 0 134.21 32"><title>logo-agency-white</title><path d="M80.06,17.68h6.06a5.55,5.55,0,0,1,4,1.41,3.89,3.89,0,0,1,1.09,2.78v0c0,2.33-1.61,3.7-3.82,4.1l4.33,5.75h-2l-4.08-5.47h-4v5.47H80.06ZM86,24.86c2.11,0,3.62-1.09,3.62-2.9v0c0-1.73-1.33-2.78-3.6-2.78H81.65v5.71Zm7-.1v0a7.18,7.18,0,1,1,14.36,0v0a7.18,7.18,0,1,1-14.36,0Zm12.71,0v0a5.6,5.6,0,0,0-5.55-5.81,5.53,5.53,0,0,0-5.51,5.77v0a5.6,5.6,0,0,0,5.55,5.81A5.53,5.53,0,0,0,105.69,24.76Zm3.68,1.11V17.68H111v8.09c0,3,1.61,4.75,4.31,4.75s4.25-1.57,4.25-4.65V17.68h1.59v8.07c0,4.1-2.35,6.24-5.87,6.24S109.38,29.85,109.38,25.86Zm14.29-8.19h5.27c3.18,0,5.27,1.69,5.27,4.47v0c0,3-2.53,4.61-5.53,4.61h-3.42v5h-1.59Zm5.07,7.67c2.33,0,3.86-1.25,3.86-3.1v0c0-2-1.51-3.06-3.78-3.06h-3.56v6.2Zm-53-.91v5.09a6.42,6.42,0,0,1-3.63,1,5.57,5.57,0,0,1-5.44-5.8,5.51,5.51,0,0,1,5.42-5.8,7.29,7.29,0,0,1,4.65,1.68v-2a8.85,8.85,0,0,0-4.63-1.19,7.1,7.1,0,0,0-7,7.23c0,3.87,2.69,7.31,7,7.31A7.64,7.64,0,0,0,77.25,30V24.43ZM0,17.67H1.61l5.13,7.68,5.13-7.68h1.61V31.75H11.89V20.35L6.76,27.89H6.68L1.55,20.37V31.75H0Zm16.26,0H26.44v1.45H17.85v4.81h7.68v1.45H17.85V30.3h8.69v1.45H16.26Zm12.48,0h4.89c4.43,0,7.48,3,7.48,7v0c0,4-3.06,7-7.48,7H28.73Zm4.89,12.61c3.56,0,5.83-2.41,5.83-5.53v0a5.48,5.48,0,0,0-5.83-5.57h-3.3V30.28ZM43,17.67h1.59V31.75H43Zm9.32-.1h1.49l6.42,14.18H58.51L56.86,28H49.2l-1.67,3.72H45.9Zm3.92,9L53,19.42,49.82,26.6ZM36,6.59l-3-6.41H29.27l3.06,6.41Zm-13.89,0,1.13-3,1.24,3h3.58L25.26.18H21.2L18.61,6.59ZM13.8.18H10.3V6.59H13.8ZM68,6.59c-2.11-1.25-5-1.51-5-2.85,0-.71.8-1.16,2.06-1.16a10.87,10.87,0,0,1,4.46,1.27V1.09A11.49,11.49,0,0,0,64.75,0c-3.27,0-5.37,1.61-5.37,4a3.83,3.83,0,0,0,.86,2.55Zm-26.78,0L44.11.18H40.34L37.52,6.59Zm7.86,0,1.14-3,1.24,3H55L52.16.18H48.09L45.51,6.59Zm-4.23,1.7-2.41,6h3.71l2.28-6Zm7.32,0,2.5,6h3.78l-2.65-6Zm-19,0,2.95,6.16h1.53l2.81-6.16Zm29.7,0c1.84.74,3.71,1.1,3.71,2.28,0,.83-.73,1.3-2.06,1.3-1.55,0-2.78-.47-4.81-1.82v3a9.58,9.58,0,0,0,5.09,1.36c3.14,0,5.4-1.57,5.4-4.26a3.82,3.82,0,0,0-.45-1.9Zm-52.53,6H13.8v-6H10.3ZM3.52.18H0V6.59H3.52ZM0,14.27H3.52v-6H0Zm17.93-6-2.41,6h3.72l2.28-6Zm7.31,0,2.5,6h3.78l-2.65-6Z" style="fill:#fff"/></svg>