<?xml version="1.0" encoding="utf-8"?>
<!-- Generator: Adobe Illustrator 16.0.0, SVG Export Plug-In . SVG Version: 6.00 Build 0)  -->
<!DOCTYPE svg PUBLIC "-//W3C//DTD SVG 1.1//EN" "http://www.w3.org/Graphics/SVG/1.1/DTD/svg11.dtd">
<svg version="1.1" id="svg2" xmlns:svg="http://www.w3.org/2000/svg"
	 xmlns="http://www.w3.org/2000/svg" xmlns:xlink="http://www.w3.org/1999/xlink" x="0px" y="0px" width="116.377px"
	 height="21.212px" viewBox="0.637 36.526 116.377 21.212" enable-background="new 0.637 36.526 116.377 21.212"
	 xml:space="preserve">
<g>
	<path fill="#FFFFFF" d="M34.864,45.734c2.761-1.118,3.784-2.629,3.784-4.497c0-3.26-2.844-4.711-7.507-4.711h-8.339
		c0.523,0.797,1.023,1.653,1.023,2.938v6.472c-2.451,0.488-4.652,0.905-6.722,1.404c-1.856-5.116-3.926-10.814-3.926-10.814H7.989
		c0.083,0.714,0.012,1.476-0.369,2.51L1.814,55.217c0,0-0.38,1.142-1.178,2.165h4.247c-0.083-0.56,0.024-1.297,0.167-1.749
		c0.429-1.272,1.583-2.118,2.808-2.665c1.594-0.726,4.366-1.594,5.675-1.986l1.38,3.949c0,0,0.56,1.487,0.262,2.451h5.996
		c-0.904-1.226-1.213-2.142-1.213-2.165c-0.143-0.381-0.928-2.57-1.939-5.33c1.832-0.44,3.748-0.809,5.806-1.214v5.746
		c0,1.106-0.452,2.082-1.023,2.951h7.923c1.297,0,2.451-0.072,3.32-0.227c3.403-0.596,5.841-2.332,5.841-6.032
		C39.897,48.28,37.994,46.591,34.864,45.734 M8.072,50.041c-0.5,0.238-1.142,0.631-1.511,1c1.143-3.332,2.713-7.911,3.474-10.077
		l2.617,7.472C11.332,48.816,9.298,49.458,8.072,50.041z M28.452,39.132c0.821-0.047,1.119-0.047,1.654-0.047
		c2.558,0,3.748,1.07,3.748,2.581c0,1.439-0.952,2.332-2.534,2.808c-0.667,0.202-1.773,0.429-2.867,0.619L28.452,39.132
		L28.452,39.132z M30.38,54.788h-1.916v-6.947c0.714-0.167,1.856-0.369,2.605-0.452c2.308,0.535,4.009,1.487,4.009,3.843
		C35.067,53.979,33.057,54.788,30.38,54.788"/>
	<g>
		<path fill="#FFFFFF" d="M42.038,57.382c1.023-1.535,1.023-2.927,1.023-2.95V39.488c0-0.023,0-1.403-1.023-2.949h6.698
			c-1.023,1.546-1.023,2.926-1.023,2.949v14.943c0,0.023,0,1.415,1.023,2.95H42.038z"/>
		<path fill="#FFFFFF" d="M117.014,42.701h-4.485c0.38,0.618,0.227,1.605-0.167,2.605l-2.902,7.744l-3.011-7.744
			c-0.404-1-0.546-1.987-0.166-2.605h-5.794c0.797,0.844,1.297,1.927,1.583,2.605l4.984,12.075h3.878c0,0,0.095-0.987,0.536-2.094
			l0,0l4.009-9.981C115.752,44.616,116.324,43.427,117.014,42.701"/>
		<path fill="#FFFFFF" d="M101.083,50.47c0.285-3.069-0.559-8.412-7.34-8.412c-5.532,0-7.567,3.855-7.567,7.615
			c0,4.781,2.605,8.065,8.84,8.065c2.534,0,4.58-0.749,5.793-1.487l-1.249-2.761c-1.178,0.596-2.617,1.119-4.224,1.119
			c-2.784,0-4.497-0.977-4.866-3.736h6.021C98.704,50.886,100.5,50.755,101.083,50.47 M90.483,48.353
			c0.273-2.368,1.333-3.57,3.26-3.57c1.999,0,2.986,1.547,3.069,3.546c0,0-0.88,0.024-2.022,0.024H90.483z"/>
		<path fill="#FFFFFF" d="M60.193,57.382h5.937c-0.904-1.356-0.904-2.594-0.904-2.605v-7.84c0-2.809-1.511-4.533-4.699-4.533
			c-2.035,0-3.712,0.916-4.949,2.034v-1.736h-5.044c0.904,1.368,0.904,2.594,0.904,2.605v9.458c0,0.023,0,1.249-0.904,2.605h5.948
			c-0.904-1.356-0.904-2.594-0.904-2.605v-7.828c0.761-0.785,1.844-1.356,3.034-1.356c1.82,0,2.486,1.011,2.486,2.581v6.604
			C61.097,54.788,61.097,56.014,60.193,57.382"/>
		<path fill="#FFFFFF" d="M75.577,47.543c2.926,0,4.532,1.428,4.532,3.735c0,2.07-1.237,3.581-4.604,3.581h-2.01v-7.316H75.577z
			 M75.136,39.061c2.558,0,3.748,0.999,3.748,2.879c0,1.867-1.071,2.986-3.534,2.986c-0.476,0-1.344,0.012-1.856,0v-5.865H75.136z
			 M75.671,57.382c1.297,0,2.499-0.071,3.367-0.227c3.343-0.583,5.818-2.296,5.818-5.984c0-2.962-1.892-4.496-4.866-5.354
			c2.665-1.011,3.557-2.463,3.557-4.354c0-3.26-2.653-4.926-7.436-4.926h-7.995c0.559,0.845,0.749,2.07,0.749,2.95v14.943
			c0,0.975-0.178,1.998-0.749,2.95H75.671L75.671,57.382z"/>
	</g>
</g>
</svg>
